%% Generated by tools.architecture 1.0.0. Do not edit by hand.
%% All classes defined in package tropoi.spatial.grids.
classDiagram
    direction LR
    class c_tropoi_ospatial_ogrids_ogeodesic__grid_oGeodesicGridGeometry["GeodesicGridGeometry (spatial.grids.geodesic_grid)"]
    c_tropoi_ospatial_ogrids_ogeodesic__grid_oGeodesicGridGeometry : +#95;#95;init#95;#95;()
    c_tropoi_ospatial_ogrids_ogeodesic__grid_oGeodesicGridGeometry : +#95;compute#95;voronoi#95;areas()
    c_tropoi_ospatial_ogrids_ogeodesic__grid_oGeodesicGridGeometry : +#95;get#95;midpoint#95;index()$
    c_tropoi_ospatial_ogrids_ogeodesic__grid_oGeodesicGridGeometry : +build#95;adjacency#95;matrix()
    c_tropoi_ospatial_ogrids_ogeodesic__grid_oGeodesicGridGeometry : +cell#95;areas
    c_tropoi_ospatial_ogrids_ogeodesic__grid_oGeodesicGridGeometry : +cfl#95;length#95;scale
    c_tropoi_ospatial_ogrids_ogeodesic__grid_oGeodesicGridGeometry : +geodesic#95;subdivide()
    c_tropoi_ospatial_ogrids_ogeodesic__grid_oGeodesicGridGeometry : +latitudes
    c_tropoi_ospatial_ogrids_ogeodesic__grid_oGeodesicGridGeometry : +longitudes
    c_tropoi_ospatial_ogrids_ogeodesic__grid_oGeodesicGridGeometry : +n#95;points
    c_tropoi_ospatial_ogrids_ogeodesic__grid_oGeodesicGridGeometry : +point#95;latitudes
    c_tropoi_ospatial_ogrids_ogeodesic__grid_oGeodesicGridGeometry : +point#95;longitudes
    c_tropoi_ospatial_ogrids_ogeodesic__grid_oGeodesicGridGeometry : +points#95;latlon()
    class c_tropoi_ospatial_ogrids_ogrid_oLatLonGridGeometry["LatLonGridGeometry (spatial.grids.grid)"]
    c_tropoi_ospatial_ogrids_ogrid_oLatLonGridGeometry : +#95;#95;init#95;#95;()
    c_tropoi_ospatial_ogrids_ogrid_oLatLonGridGeometry : +colat#95;grid
    c_tropoi_ospatial_ogrids_ogrid_oLatLonGridGeometry : +colatitudes
    c_tropoi_ospatial_ogrids_ogrid_oLatLonGridGeometry : +create()$
    c_tropoi_ospatial_ogrids_ogrid_oLatLonGridGeometry : +grid#95;shape
    c_tropoi_ospatial_ogrids_ogrid_oLatLonGridGeometry : +lat#95;grid
    c_tropoi_ospatial_ogrids_ogrid_oLatLonGridGeometry : +latitudes
    c_tropoi_ospatial_ogrids_ogrid_oLatLonGridGeometry : +lon#95;grid
    c_tropoi_ospatial_ogrids_ogrid_oLatLonGridGeometry : +longitudes
    c_tropoi_ospatial_ogrids_ogrid_oLatLonGridGeometry : +n#95;points
    c_tropoi_ospatial_ogrids_ogrid_oLatLonGridGeometry : +point#95;latitudes
    c_tropoi_ospatial_ogrids_ogrid_oLatLonGridGeometry : +point#95;longitudes
    c_tropoi_ospatial_ogrids_ogrid_oLatLonGridGeometry : +points#95;latlon()
    class c_tropoi_ospatial_ogrids_ogrid__base_oGridGeometry["GridGeometry (spatial.grids.grid_base)"]
    c_tropoi_ospatial_ogrids_ogrid__base_oGridGeometry : +cfl#95;length#95;scale
    c_tropoi_ospatial_ogrids_ogrid__base_oGridGeometry : +colatitudes
    c_tropoi_ospatial_ogrids_ogrid__base_oGridGeometry : +grid#95;shape
    c_tropoi_ospatial_ogrids_ogrid__base_oGridGeometry : +is#95;structured
    c_tropoi_ospatial_ogrids_ogrid__base_oGridGeometry : +latitudes
    c_tropoi_ospatial_ogrids_ogrid__base_oGridGeometry : +longitudes
    c_tropoi_ospatial_ogrids_ogrid__base_oGridGeometry : +n#95;points
    c_tropoi_ospatial_ogrids_ogrid__base_oGridGeometry : +point#95;latitudes
    c_tropoi_ospatial_ogrids_ogrid__base_oGridGeometry : +point#95;longitudes
    c_tropoi_ospatial_ogrids_ogrid__base_oGridGeometry : +points#95;latlon()
    c_tropoi_ospatial_ogrids_ogrid__base_oGridGeometry : external base abc.ABC
    class c_tropoi_ospatial_ogrids_olatlon__grid_oGaussLatLonGridGeometry["GaussLatLonGridGeometry (spatial.grids.latlon_grid)"]
    c_tropoi_ospatial_ogrids_olatlon__grid_oGaussLatLonGridGeometry : +#95;#95;init#95;#95;()
    c_tropoi_ospatial_ogrids_olatlon__grid_oGaussLatLonGridGeometry : +cell#95;areas
    c_tropoi_ospatial_ogrids_olatlon__grid_oGaussLatLonGridGeometry : +cfl#95;length#95;scale
    c_tropoi_ospatial_ogrids_olatlon__grid_oGaussLatLonGridGeometry : +grid#95;shape
    c_tropoi_ospatial_ogrids_olatlon__grid_oGaussLatLonGridGeometry : +latitudes
    c_tropoi_ospatial_ogrids_olatlon__grid_oGaussLatLonGridGeometry : +longitudes
    c_tropoi_ospatial_ogrids_olatlon__grid_oGaussLatLonGridGeometry : +n#95;points
    c_tropoi_ospatial_ogrids_olatlon__grid_oGaussLatLonGridGeometry : +point#95;latitudes
    c_tropoi_ospatial_ogrids_olatlon__grid_oGaussLatLonGridGeometry : +point#95;longitudes
    c_tropoi_ospatial_ogrids_olatlon__grid_oGaussLatLonGridGeometry : +points#95;latlon()
    class c_tropoi_ospatial_ogrids_olatlon__grid_oGaussLatLonSphericalHarmonics["GaussLatLonSphericalHarmonics (spatial.grids.latlon_grid)"]
    c_tropoi_ospatial_ogrids_olatlon__grid_oGaussLatLonSphericalHarmonics : +#95;#95;getattr#95;#95;()
    c_tropoi_ospatial_ogrids_olatlon__grid_oGaussLatLonSphericalHarmonics : +#95;#95;init#95;#95;()
    c_tropoi_ospatial_ogrids_olatlon__grid_oGaussLatLonSphericalHarmonics : +inv#95;transform()
    c_tropoi_ospatial_ogrids_olatlon__grid_oGaussLatLonSphericalHarmonics : +inverse#95;transform()
    c_tropoi_ospatial_ogrids_olatlon__grid_oGaussLatLonSphericalHarmonics : +transform()
    c_tropoi_ospatial_ogrids_ogrid__base_oGridGeometry <|-- c_tropoi_ospatial_ogrids_ogeodesic__grid_oGeodesicGridGeometry
    c_tropoi_ospatial_ogrids_ogrid__base_oGridGeometry <|-- c_tropoi_ospatial_ogrids_ogrid_oLatLonGridGeometry
    c_tropoi_ospatial_ogrids_ogrid__base_oGridGeometry <|-- c_tropoi_ospatial_ogrids_olatlon__grid_oGaussLatLonGridGeometry
